<svg xmlns="http://www.w3.org/2000/svg" width="1477.305" height="267.561" viewBox="0 0 1477.305 267.561">
  <path id="Контур_737" data-name="Контур 737" d="M15.345-203.391h44.64v90.675A48.7,48.7,0,0,1,97.092-128.9q26.5,0,44.082,16.74,20.367,19.251,20.367,49.383T141.453-13.113q-17.856,17.3-43.8,17.3-23.715,0-37.665-17.856V0H15.345ZM87.327-33.759a27.078,27.078,0,0,0,19.809-8.37q8.649-8.649,8.649-19.53a28.832,28.832,0,0,0-8.649-21.2,26.94,26.94,0,0,0-19.809-8.091q-12.555,0-20.367,8.37Q58.59-73.656,58.59-62.5a27.592,27.592,0,0,0,9.486,21.2A28.607,28.607,0,0,0,87.327-33.759ZM257.238-90.954a28.5,28.5,0,0,0-20.088,8.091A26.707,26.707,0,0,0,228.5-62.5q0,11.16,8.649,19.809a27.4,27.4,0,0,0,20.088,8.37,27.078,27.078,0,0,0,19.809-8.37A26.082,26.082,0,0,0,285.7-62.5a27.866,27.866,0,0,0-8.649-20.367A28.173,28.173,0,0,0,257.238-90.954Zm55.521-17.3Q332.01-89.559,332.01-62.5T312.759-16.461q-20.925,20.646-55.8,20.646-34.6,0-55.521-20.646Q182.187-35.433,182.187-62.5t19.251-45.756q21.2-20.646,55.521-20.646Q291-128.9,312.759-108.252ZM432.45-88.164H407.061V0h-44.64V-88.164H348.192v-36.549h14.229v-41.013h44.64v41.013H432.45Zm86.769-2.79a28.5,28.5,0,0,0-20.088,8.091A26.707,26.707,0,0,0,490.482-62.5q0,11.16,8.649,19.809a27.4,27.4,0,0,0,20.088,8.37,27.078,27.078,0,0,0,19.809-8.37A26.082,26.082,0,0,0,547.677-62.5a27.866,27.866,0,0,0-8.649-20.367A28.173,28.173,0,0,0,519.219-90.954Zm55.521-17.3Q593.991-89.559,593.991-62.5T574.74-16.461Q553.815,4.185,518.94,4.185q-34.6,0-55.521-20.646Q444.168-35.433,444.168-62.5t19.251-45.756q21.2-20.646,55.521-20.646Q552.978-128.9,574.74-108.252Zm92.349,104.9A27.866,27.866,0,0,1,646.722,5.3a27.866,27.866,0,0,1-20.367-8.649,27.866,27.866,0,0,1-8.649-20.367,27.866,27.866,0,0,1,8.649-20.367,27.866,27.866,0,0,1,20.367-8.649q11.718,0,20.646,8.928a27.275,27.275,0,0,1,8.091,20.088A27.721,27.721,0,0,1,667.089-3.348Zm146.2-88.164,2.79-22.32h11.16L813.285,0h-11.16l2.232-17.577A46.37,46.37,0,0,1,787.617-2.79a57.824,57.824,0,0,1-26.226,5.859q-22.32,0-36.27-13.113Q708.66-25.11,708.66-51.336q0-30.969,19.251-49.383,16.182-15.624,42.129-15.624,16.461,0,27.621,7.533A46.547,46.547,0,0,1,813.285-91.512Zm-45.477-14.229q-19.53,0-32.085,12.555-15.345,15.345-15.345,41.013,0,21.483,13.113,34.038,11.16,10.6,29.016,10.6,15.624,0,27.063-8.37a45.939,45.939,0,0,0,15.9-21.2,70.779,70.779,0,0,0,4.743-24.552q0-20.925-11.718-32.643Q787.617-105.741,767.808-105.741Zm193.347-8.091h11.16L958.923-3.348q-4.464,35.712-18.693,50.5Q924.048,64.17,895.59,64.17q-24.273,0-37.665-13.392Q843.975,37.386,843.7,15.345h11.718q.558,16.74,10.044,26.784,10.881,11.439,31.527,11.439,21.762,0,34.317-12.555,12.276-12.276,16.461-44.361l1.953-16.182A48.1,48.1,0,0,1,931.3-3.348,57.46,57.46,0,0,1,904.8,3.069q-24.552,0-38.223-14.508-14.508-15.624-14.508-39.9,0-29.295,18.414-47.988,16.182-17.019,42.966-17.019,18.693,0,30.969,7.812a55.462,55.462,0,0,1,14.229,14.508Zm-47.43,8.091q-19.809,0-33.2,12.555-16.182,15.345-16.182,41.85,0,18.693,12,31.806,11.16,12,31.248,12,19.809,0,32.643-13.113Q955.3-36.549,955.3-62.5q0-20.646-12-32.085Q932.139-105.741,913.725-105.741Zm193.905,50.22h-97.092a42.443,42.443,0,0,0,1.674,20.507,41.381,41.381,0,0,0,9.765,16.322q11.16,11.16,28.737,11.16,15.624,0,27.063-8.091a47.741,47.741,0,0,0,14.787-17.856l8.649,5.58q-8.37,14.787-20.367,22.6-12.555,8.37-30.411,8.37-23.994,0-37.944-15.066-14.229-15.066-14.229-38.781,0-30.132,18.972-49.1,16.461-16.461,40.734-16.461,22.041,0,35.712,13.113Q1110.141-87.327,1107.63-55.521Zm-95.418-10.6h84.258q-.279-17.577-11.439-29.016-10.044-10.6-27.063-10.6-19.53,0-32.643,13.671A51.552,51.552,0,0,0,1012.212-66.123ZM1134.414,0l13.95-113.832h11.16l-2.232,17.856a37.168,37.168,0,0,1,13.113-14.229q9.207-6.138,22.6-6.138,16.74,0,25.668,8.928,8.649,8.649,8.649,22.6,0,1.674-1.674,20.088L1217.556,0H1206.4l8.091-66.4q1.4-13.113,1.4-15.066,0-10.881-6.138-17.3-6.417-6.975-19.251-6.975-14.229,0-23.436,8.928-10.6,10.323-14.229,37.665L1145.574,0Zm227.664-101.835-1.953,14.787A55.23,55.23,0,0,0,1344.5-99.882a47.062,47.062,0,0,0-22.6-5.859q-23.715,0-37.665,14.787-15.066,15.066-15.066,39.06,0,18.693,11.718,31.806,11.439,12.555,32.085,12.555a50.565,50.565,0,0,0,23.436-5.3A53.693,53.693,0,0,0,1354.266-27.9l-1.953,16.182A80.581,80.581,0,0,1,1336.131-1.4a60.554,60.554,0,0,1-23.715,4.464q-25.11,0-40.176-15.066-14.787-15.345-14.787-39.9,0-29.016,18.972-47.43,17.577-17.019,45.2-17.019a66.5,66.5,0,0,1,24.831,5.022A73.073,73.073,0,0,1,1362.078-101.835Zm21.2,166L1417.6,1.953l-39.9-115.785h12.276l35.433,101.277,53.847-101.277h13.392l-96.534,178Z" transform="translate(-15.345 203.391)" fill="#232b39"/>
</svg>
