<svg xmlns="http://www.w3.org/2000/svg" width="120.612" height="53.6" viewBox="0 0 120.612 53.6">
  <path id="logo" d="M18.415,52.6V11.689h3.843v5.728A13.021,13.021,0,0,1,34.02,10.988a14.4,14.4,0,0,1,10.626,4.442,14.864,14.864,0,0,1,4.4,10.871,14.864,14.864,0,0,1-4.4,10.871A14.4,14.4,0,0,1,34.02,41.613a13.021,13.021,0,0,1-11.762-6.429V52.6Zm7.162-34.512A11.242,11.242,0,0,0,22.258,26.3a11.242,11.242,0,0,0,3.319,8.211,11.011,11.011,0,0,0,8.152,3.361,11.012,11.012,0,0,0,8.152-3.361A11.243,11.243,0,0,0,45.2,26.3a11.243,11.243,0,0,0-3.319-8.212,11.012,11.012,0,0,0-8.152-3.361A11.011,11.011,0,0,0,25.577,18.089ZM4.408,48.322V45.889H1.653l-.331-1.128H4.408v-3.3h1.08v3.3H12.65a2.111,2.111,0,0,0,1.366-.354,1.5,1.5,0,0,0,.474-1.084,11.151,11.151,0,0,0-.055-1.858h.992a5.233,5.233,0,0,1-.309,3.329,2.613,2.613,0,0,1-2.468,1.1H5.488v2.433ZM93.381,37.171a14.864,14.864,0,0,1-4.4-10.871,14.864,14.864,0,0,1,4.4-10.871,14.4,14.4,0,0,1,10.626-4.442,13.021,13.021,0,0,1,11.762,6.429V0h3.843V40.911h-3.843V35.184a13.021,13.021,0,0,1-11.762,6.429A14.4,14.4,0,0,1,93.381,37.171Zm2.766-19.082A11.242,11.242,0,0,0,92.828,26.3a11.242,11.242,0,0,0,3.319,8.211,11.567,11.567,0,0,0,16.3,0,11.242,11.242,0,0,0,3.319-8.211,11.242,11.242,0,0,0-3.319-8.212,11.567,11.567,0,0,0-16.3,0ZM58.154,37.2A14.737,14.737,0,0,1,53.7,26.3,15.14,15.14,0,0,1,69.013,10.988,15.14,15.14,0,0,1,84.327,26.3,15.14,15.14,0,0,1,69.013,41.613,14.848,14.848,0,0,1,58.154,37.2Zm2.707-19.112A11.243,11.243,0,0,0,57.543,26.3a11.243,11.243,0,0,0,3.319,8.211,11.567,11.567,0,0,0,16.3,0A11.242,11.242,0,0,0,80.484,26.3a11.242,11.242,0,0,0-3.319-8.212,11.567,11.567,0,0,0-16.3,0ZM0,38.81V37.7H6.5a4.111,4.111,0,0,1-2.336-3.96,4.152,4.152,0,0,1,1.2-3.13,4.418,4.418,0,0,1,3.207-1.161h6.854v1.128H8.573a3.422,3.422,0,0,0-2.446.852,3.139,3.139,0,0,0-.9,2.4A3.7,3.7,0,0,0,6.347,36.62,4.516,4.516,0,0,0,9.609,37.7h5.818V38.81ZM5.807,25.482a5.515,5.515,0,0,1-1.642-4.126,5.015,5.015,0,0,1,1.719-3.949,5.963,5.963,0,0,1,4.077-1.515q.088,0,.264.011t.264.011V25.935a4.449,4.449,0,0,0,2.986-1.493,4.675,4.675,0,0,0,1.135-3.2,4.72,4.72,0,0,0-.551-2.323,3.771,3.771,0,0,0-1.455-1.5l.573-.973A4.892,4.892,0,0,1,15,18.392a6.018,6.018,0,0,1,.672,2.876,5.694,5.694,0,0,1-1.62,4.181,5.566,5.566,0,0,1-4.132,1.637A5.646,5.646,0,0,1,5.807,25.482Zm.529-7.035a4.187,4.187,0,0,0-1.113,2.909A4.446,4.446,0,0,0,6.391,24.5a4.552,4.552,0,0,0,3.019,1.438V17.043A4.52,4.52,0,0,0,6.336,18.447Z" transform="translate(0.5 0.5)" stroke="rgba(0,0,0,0)" stroke-miterlimit="10" stroke-width="1"/>
</svg>
