<svg xmlns="http://www.w3.org/2000/svg" width="335.612" height="148.6" viewBox="0 0 335.612 148.6">
  <path id="logo" d="M51.515,147.6V32.8H62.266V48.872q11.238-18.04,32.9-18.04A40.23,40.23,0,0,1,124.9,43.3q12.3,12.465,12.3,30.5t-12.3,30.5a40.23,40.23,0,0,1-29.727,12.464q-21.664,0-32.9-18.04V147.6ZM71.55,50.758A31.6,31.6,0,0,0,62.266,73.8,31.6,31.6,0,0,0,71.55,96.842a30.757,30.757,0,0,0,22.8,9.43,30.758,30.758,0,0,0,22.8-9.43A31.6,31.6,0,0,0,126.443,73.8a31.6,31.6,0,0,0-9.284-23.042,30.758,30.758,0,0,0-22.8-9.43A30.757,30.757,0,0,0,71.55,50.758ZM12.331,135.6v-6.828H4.624L3.7,125.6h8.631v-9.249h3.021V125.6H35.389a5.892,5.892,0,0,0,3.823-.993,4.207,4.207,0,0,0,1.326-3.042,31.385,31.385,0,0,0-.154-5.214h2.774q.925,6.27-.863,9.342t-6.905,3.073H15.352V135.6Zm248.9-31.293q-12.3-12.465-12.3-30.5t12.3-30.5a40.23,40.23,0,0,1,29.727-12.464q21.664,0,32.9,18.04V0h10.75V114.8h-10.75V98.728q-11.239,18.04-32.9,18.04A40.23,40.23,0,0,1,261.232,104.3Zm7.737-53.546A31.6,31.6,0,0,0,259.684,73.8a31.6,31.6,0,0,0,9.285,23.042,32.288,32.288,0,0,0,45.608,0A31.6,31.6,0,0,0,323.862,73.8a31.6,31.6,0,0,0-9.285-23.042,32.288,32.288,0,0,0-45.608,0ZM162.686,104.386Q150.224,92,150.225,73.8t12.461-30.586a43.457,43.457,0,0,1,60.757,0Q235.9,55.6,235.9,73.8t-12.461,30.586a43.457,43.457,0,0,1-60.757,0Zm7.574-53.628A31.6,31.6,0,0,0,160.975,73.8a31.6,31.6,0,0,0,9.284,23.042,32.289,32.289,0,0,0,45.608,0A31.6,31.6,0,0,0,225.152,73.8a31.6,31.6,0,0,0-9.284-23.042,32.289,32.289,0,0,0-45.608,0ZM0,108.9v-3.1H18.188q-6.535-3.352-6.535-11.111a11.67,11.67,0,0,1,3.36-8.784,12.336,12.336,0,0,1,8.971-3.259H43.157v3.166H23.983A9.555,9.555,0,0,0,17.14,88.2a8.822,8.822,0,0,0-2.528,6.735,10.4,10.4,0,0,0,3.144,7.821Q20.9,105.8,26.881,105.8H43.157v3.1ZM16.246,71.5a15.5,15.5,0,0,1-4.593-11.577,14.093,14.093,0,0,1,4.809-11.08A16.65,16.65,0,0,1,27.867,44.6q.247,0,.74.031t.74.031v28.12a12.432,12.432,0,0,0,8.354-4.19,13.142,13.142,0,0,0,3.175-8.97A13.277,13.277,0,0,0,39.335,53.1a10.567,10.567,0,0,0-4.069-4.221l1.6-2.731a13.711,13.711,0,0,1,5.086,5.463,16.93,16.93,0,0,1,1.88,8.07A16.005,16.005,0,0,1,39.3,71.412a15.545,15.545,0,0,1-11.56,4.594A15.768,15.768,0,0,1,16.246,71.5Zm1.48-19.74a11.769,11.769,0,0,0-3.113,8.163,12.5,12.5,0,0,0,3.268,8.815,12.718,12.718,0,0,0,8.447,4.035V47.823A12.628,12.628,0,0,0,17.725,51.765Z" transform="translate(0.5 0.5)" fill="#fff" stroke="rgba(0,0,0,0)" stroke-miterlimit="10" stroke-width="1"/>
</svg>
