<svg id="Сгруппировать_1" data-name="Сгруппировать 1" xmlns="http://www.w3.org/2000/svg" width="25.598" height="24.094" viewBox="0 0 25.598 24.094">
  <path id="Контур_1" data-name="Контур 1" d="M27.537,10.068a2.631,2.631,0,0,0-2.021-.959H9.1L8.591,7.192A2.573,2.573,0,0,0,6.084,5.3H3.335a.8.8,0,1,0,0,1.607H6.084a.885.885,0,0,1,.862.648l3.288,12.593a2.573,2.573,0,0,0,2.506,1.892H23.494A2.55,2.55,0,0,0,26,20.148l2.021-7.981A2.306,2.306,0,0,0,27.537,10.068ZM26.378,11.8l-2.021,7.981a.885.885,0,0,1-.862.648H12.741a.885.885,0,0,1-.862-.648L9.534,10.742H25.515a.906.906,0,0,1,.7.337A.789.789,0,0,1,26.378,11.8Z" transform="translate(-2.5 -5.3)" fill="#fff"/>
  <path id="Контур_2" data-name="Контур 2" d="M35.284,73.9a3.084,3.084,0,1,0,3.084,3.084A3.1,3.1,0,0,0,35.284,73.9Zm0,4.3A1.216,1.216,0,1,1,36.5,76.984,1.241,1.241,0,0,1,35.284,78.2Z" transform="translate(-24.421 -55.974)" fill="#fff"/>
  <path id="Контур_3" data-name="Контур 3" d="M69.684,73.9a3.084,3.084,0,1,0,3.084,3.084A3.1,3.1,0,0,0,69.684,73.9Zm0,4.3A1.216,1.216,0,1,1,70.9,76.984,1.241,1.241,0,0,1,69.684,78.2Z" transform="translate(-50.16 -55.974)" fill="#fff"/>
</svg>
