<svg xmlns="http://www.w3.org/2000/svg" width="212.612" height="93.6" viewBox="0 0 212.612 93.6">
  <path id="logo" d="M32.579,92.6V20.578h6.8V30.661q7.107-11.318,20.808-11.318a25.543,25.543,0,0,1,18.8,7.82A26.1,26.1,0,0,1,86.762,46.3a26.1,26.1,0,0,1-7.777,19.137,25.543,25.543,0,0,1-18.8,7.82q-13.7,0-20.808-11.318V92.6ZM45.249,31.844A19.741,19.741,0,0,0,39.378,46.3a19.741,19.741,0,0,0,5.871,14.456,19.529,19.529,0,0,0,14.422,5.916,19.53,19.53,0,0,0,14.422-5.916A19.742,19.742,0,0,0,79.964,46.3a19.742,19.742,0,0,0-5.871-14.456,19.53,19.53,0,0,0-14.422-5.916A19.53,19.53,0,0,0,45.249,31.844ZM7.8,85.07V80.786H2.924L2.339,78.8H7.8V73H9.709v5.8H22.38a3.748,3.748,0,0,0,2.417-.623,2.63,2.63,0,0,0,.838-1.908,19.534,19.534,0,0,0-.1-3.271h1.755q.585,3.933-.546,5.861T22.38,80.786H9.709V85.07ZM165.206,65.437A26.1,26.1,0,0,1,157.428,46.3a26.1,26.1,0,0,1,7.777-19.137,25.543,25.543,0,0,1,18.8-7.82q13.7,0,20.808,11.318V0h6.8V72.022h-6.8V61.939q-7.108,11.318-20.808,11.318A25.543,25.543,0,0,1,165.206,65.437ZM170.1,31.844A19.741,19.741,0,0,0,164.227,46.3,19.741,19.741,0,0,0,170.1,60.756a20.535,20.535,0,0,0,28.843,0A19.741,19.741,0,0,0,204.814,46.3a19.741,19.741,0,0,0-5.872-14.456,20.535,20.535,0,0,0-28.843,0ZM102.884,65.489A25.878,25.878,0,0,1,95,46.3a25.878,25.878,0,0,1,7.88-19.189,27.641,27.641,0,0,1,38.423,0,25.88,25.88,0,0,1,7.88,19.189,25.88,25.88,0,0,1-7.88,19.189,27.641,27.641,0,0,1-38.423,0Zm4.79-33.645A19.742,19.742,0,0,0,101.8,46.3a19.742,19.742,0,0,0,5.872,14.456,20.536,20.536,0,0,0,28.843,0A19.74,19.74,0,0,0,142.388,46.3a19.74,19.74,0,0,0-5.872-14.456,20.536,20.536,0,0,0-28.843,0ZM0,68.324V66.376H11.5a7.233,7.233,0,0,1-4.133-6.971,7.29,7.29,0,0,1,2.125-5.511,7.838,7.838,0,0,1,5.673-2.045H27.293v1.986H15.167a6.072,6.072,0,0,0-4.328,1.5,5.511,5.511,0,0,0-1.6,4.225,6.5,6.5,0,0,0,1.989,4.907A8.015,8.015,0,0,0,17,66.376H27.293v1.947ZM10.274,44.86a9.685,9.685,0,0,1-2.9-7.263,8.81,8.81,0,0,1,3.041-6.951,10.579,10.579,0,0,1,7.213-2.668q.156,0,.468.019t.468.019V45.658a7.884,7.884,0,0,0,5.283-2.629A8.2,8.2,0,0,0,25.851,37.4a8.276,8.276,0,0,0-.975-4.089A6.654,6.654,0,0,0,22.3,30.665l1.014-1.714a8.63,8.63,0,0,1,3.217,3.427,10.553,10.553,0,0,1,1.189,5.063,10,10,0,0,1-2.866,7.36,9.872,9.872,0,0,1-7.311,2.882A10.015,10.015,0,0,1,10.274,44.86Zm.936-12.384A7.351,7.351,0,0,0,9.241,37.6a7.8,7.8,0,0,0,2.066,5.53,8.069,8.069,0,0,0,5.342,2.531V30A8.013,8.013,0,0,0,11.21,32.476Z" transform="translate(0.5 0.5)" fill="#fff" stroke="rgba(0,0,0,0)" stroke-miterlimit="10" stroke-width="1"/>
</svg>
