<svg xmlns="http://www.w3.org/2000/svg" width="24.002" height="22.018" viewBox="0 0 24.002 22.018">
  <path id="icons8-телеграмма-app_1_" data-name="icons8-телеграмма-app (1)" d="M25.154,3.984a2.718,2.718,0,0,0-.895.217c-.25.1-1.2.51-2.707,1.154s-3.5,1.5-5.621,2.414C11.682,9.6,6.9,11.654,4.457,12.707a2.808,2.808,0,0,0-.754.408A1.922,1.922,0,0,0,3,14.547a1.888,1.888,0,0,0,.533,1.281,2.548,2.548,0,0,0,.881.549l4.58,1.873c.2.617,1.3,3.972,1.553,4.795a3.52,3.52,0,0,0,.535,1.152,1.446,1.446,0,0,0,.371.346,1.176,1.176,0,0,0,.188.092l0,0c.015.006.028.016.043.021a.68.68,0,0,0,.086.02,1.447,1.447,0,0,0,1.387-.242l.021-.016,3.01-2.6,3.65,3.453A1.913,1.913,0,0,0,21.43,26a2.01,2.01,0,0,0,1.445-.65,2.171,2.171,0,0,0,.6-1.131v0c.079-.419,3.443-17.689,3.443-17.689l-.006.023a2.685,2.685,0,0,0,.016-1.281,1.747,1.747,0,0,0-.75-1.021A1.8,1.8,0,0,0,25.154,3.984Zm-.187,2.09c0,.029,0,.015,0,.049l0,.012,0,.012s-3.323,17.05-3.445,17.7c.009-.049-.032.049-.074.107a1.423,1.423,0,0,0-.182-.094l-.019-.021-4.986-4.717-3.525,3.047,1.049-4.2s6.556-6.787,6.951-7.182c.318-.316.385-.426.385-.535A.227.227,0,0,0,20.865,10a1.108,1.108,0,0,0-.469.219c-1.433.914-7.725,4.58-10.545,6.221L5.234,14.551l.014-.006c2.448-1.053,7.224-3.11,11.473-4.937,2.125-.914,4.118-1.769,5.621-2.414C23.822,6.559,24.85,6.122,24.967,6.074Z" transform="translate(-3 -3.982)" fill="#fff"/>
</svg>
