<svg xmlns="http://www.w3.org/2000/svg" width="55.243" height="60" viewBox="0 0 55.243 60">
  <path id="icons8-viber" d="M30.609,2a46.01,46.01,0,0,0-5.044.331A33.2,33.2,0,0,0,15.434,4.96C9.692,7.58,6.243,11.838,5.187,17.615a73.71,73.71,0,0,0-1.01,7.4A39.852,39.852,0,0,0,5.418,39.6c1.287,4.455,3.553,7.646,6.886,9.726A15.692,15.692,0,0,0,18.069,51.6c.054.015.108.027.166.038a89.52,89.52,0,0,1-1.518,9.164A.986.986,0,0,0,17.676,62a1.017,1.017,0,0,0,.412-.089,34,34,0,0,0,10.79-8.37l.277-.308a.8.8,0,0,0,.058-.062c2.651-.054,5.387-.158,8.139-.3a33.162,33.162,0,0,0,11.1-2.077,14.374,14.374,0,0,0,7.68-6.956,28.935,28.935,0,0,0,2.852-10.463A48.953,48.953,0,0,0,57.661,15.53a15.409,15.409,0,0,0-6.216-8.809c-3.788-2.6-8.1-3.511-11.811-4.062A56.735,56.735,0,0,0,30.609,2Zm.57,1.969a55.158,55.158,0,0,1,8.166.64c3.491.516,7.526,1.368,10.99,3.738a13.493,13.493,0,0,1,5.43,7.715A47.054,47.054,0,0,1,57.018,33.2a27.484,27.484,0,0,1-2.1,8.489.961.961,0,0,0-.605-.227.986.986,0,0,0-.987.987V44.42a.974.974,0,0,0,.035.185,12.836,12.836,0,0,1-5.669,4.362,31.452,31.452,0,0,1-10.447,1.927c-2.751.146-5.5.25-8.15.3a1.585,1.585,0,0,0-1.414.728l-.3.328a31.9,31.9,0,0,1-8.312,6.894,57.983,57.983,0,0,0,1.164-8.17c.012-.917-.844-1.106-1.749-1.3a13.815,13.815,0,0,1-5.1-2,12.735,12.735,0,0,1-3.476-3.214c0-.019.008-.031.008-.046V42.447a.977.977,0,0,0-1.63-.736,19.17,19.17,0,0,1-.975-2.655A37.97,37.97,0,0,1,6.143,25.175a72.46,72.46,0,0,1,.987-7.206c.933-5.1,4-8.875,9.125-11.214a31.244,31.244,0,0,1,9.553-2.462A43.731,43.731,0,0,1,31.179,3.973Zm3.888,5.873A14.914,14.914,0,0,0,31.8,10.2a.988.988,0,1,0,.435,1.927,12.775,12.775,0,0,1,15.414,10.4.988.988,0,0,0,.975.832.654.654,0,0,0,.15-.012.983.983,0,0,0,.825-1.125A14.784,14.784,0,0,0,35.068,9.846ZM21.422,13.357a3.22,3.22,0,0,0-.852.081c-2.459.539-5.356,2.451-5.437,6.077a.933.933,0,0,0,.015.181c.019.112.027.227.042.343a3.667,3.667,0,0,0,.231,1.106c.185.459.37.921.551,1.383a37.194,37.194,0,0,0,1.85,4.17A40.1,40.1,0,0,0,32.675,42.116a1.057,1.057,0,0,0-.066.331V44.42a.987.987,0,1,0,1.973,0V43.2c1.306.7,2.655,1.349,4.069,1.946a5.573,5.573,0,0,0,2.15.462,4.755,4.755,0,0,0,1.823-.37,8.278,8.278,0,0,0,4-3.283c1.006-1.638,1.8-3.776-.975-5.807-.462-.339-.921-.678-1.383-1.021-.759-.563-1.526-1.129-2.3-1.68a5.124,5.124,0,0,0-3.973-1.1,4.245,4.245,0,0,0-2.763,2.146c-.027.027-.054.058-.085.085l-.081.085a1.184,1.184,0,0,1-1.457.328,13.469,13.469,0,0,1-7.484-6.844c-.778-1.642-.644-2.162.828-3.264.2-.154.4-.316.59-.486a3.016,3.016,0,0,0,.771-3.742,21.287,21.287,0,0,0-4.532-6.231A3.576,3.576,0,0,0,21.422,13.357Zm12.636,1.256a11.605,11.605,0,0,0-1.815.15.986.986,0,1,0,.32,1.946,9.384,9.384,0,0,1,1.5-.123,8.967,8.967,0,0,1,8.983,8.925A9.227,9.227,0,0,1,42.917,27a.987.987,0,0,0,.809,1.137,1.265,1.265,0,0,0,.166.015.99.99,0,0,0,.971-.828A10.909,10.909,0,0,0,34.058,14.613Zm-12.794.717a1.556,1.556,0,0,1,1.156.524,19.351,19.351,0,0,1,4.116,5.661,1.04,1.04,0,0,1-.324,1.418c-.143.131-.293.254-.447.37-2.216,1.657-2.6,3.2-1.43,5.688a15.6,15.6,0,0,0,8.52,7.823,3.187,3.187,0,0,0,3.7-.856,2.038,2.038,0,0,0,.347-.428,2.426,2.426,0,0,1,1.491-1.252,3.388,3.388,0,0,1,2.435.778c.763.54,1.511,1.1,2.262,1.657q.694.515,1.391,1.029c1.326.963,1.418,1.618.462,3.179a6.354,6.354,0,0,1-3.071,2.493,3.052,3.052,0,0,1-2.451-.093A39.164,39.164,0,0,1,19.553,25.753,34.8,34.8,0,0,1,17.811,21.8c-.189-.47-.374-.94-.566-1.41a2.42,2.42,0,0,1-.093-.555c-.012-.119-.027-.239-.042-.358a4.517,4.517,0,0,1,3.884-4.112A1.14,1.14,0,0,1,21.264,15.33ZM32.89,19.387a.987.987,0,1,0,0,1.973,5.345,5.345,0,0,1,5.36,5.318.987.987,0,0,0,1.973,0A7.322,7.322,0,0,0,32.89,19.387ZM48.825,24.5a.99.99,0,0,0-1.056.913,12.688,12.688,0,0,1-.281,1.873.981.981,0,0,0,.74,1.179.884.884,0,0,0,.224.027.99.99,0,0,0,.96-.771,14.492,14.492,0,0,0,.324-2.162A.988.988,0,0,0,48.825,24.5ZM13.865,41.461a.986.986,0,0,0-.987.987V44.42a.987.987,0,1,0,1.973,0V42.447A.986.986,0,0,0,13.865,41.461Zm4.933,0a.986.986,0,0,0-.987.987V44.42a.987.987,0,0,0,1.973,0V42.447A.986.986,0,0,0,18.8,41.461Zm4.933,0a.986.986,0,0,0-.987.987V44.42a.987.987,0,1,0,1.973,0V42.447A.986.986,0,0,0,23.73,41.461Zm4.933,0a.986.986,0,0,0-.987.987V44.42a.987.987,0,0,0,1.973,0V42.447A.986.986,0,0,0,28.663,41.461Zm20.717,0a.986.986,0,0,0-.987.987V44.42a.987.987,0,1,0,1.973,0V42.447A.986.986,0,0,0,49.38,41.461Z" transform="translate(-4.002 -2)" fill="#fff"/>
</svg>
