<svg xmlns="http://www.w3.org/2000/svg" width="21.999" height="24" viewBox="0 0 21.999 24">
  <path id="icons8-viber_2_" data-name="icons8-viber (2)" d="M25.362,8.32a6.007,6.007,0,0,0-2.405-3.431,10.964,10.964,0,0,0-4.709-1.62,21.015,21.015,0,0,0-5.7-.133A13.291,13.291,0,0,0,8.483,4.192a6.564,6.564,0,0,0-4,4.956c-.2,1.1-.334,2.087-.412,3.032a16.251,16.251,0,0,0,.5,5.911,6.311,6.311,0,0,0,2.684,3.816,6.076,6.076,0,0,0,1.169.506c.206.073.4.145.577.221v3.53A.836.836,0,0,0,9.836,27h0a.835.835,0,0,0,.583-.237L13.676,23.6c.142-.162.142-.162.288-.165,1.113-.022,2.25-.065,3.38-.126a13.316,13.316,0,0,0,4.449-.83,5.564,5.564,0,0,0,2.964-2.692,11.676,11.676,0,0,0,1.136-4.2A20.068,20.068,0,0,0,25.362,8.32ZM19.691,18.74A2.88,2.88,0,0,1,18.3,19.885a1.585,1.585,0,0,1-1.266-.037,15.787,15.787,0,0,1-8.021-7.137,21.938,21.938,0,0,1-.928-2.164A2.294,2.294,0,0,1,8,10.059,2.158,2.158,0,0,1,9.837,8.023a.977.977,0,0,1,.914.293,8.042,8.042,0,0,1,1.7,2.358A.805.805,0,0,1,12.24,11.7a2.554,2.554,0,0,1-.2.169,1.191,1.191,0,0,0-.444,1.774,5.744,5.744,0,0,0,3.154,2.908.851.851,0,0,0,1.005-.224.8.8,0,0,0,.109-.125c.556-.927,1.361-.835,2.105-.306.489.347.963.713,1.447,1.067C20.145,17.5,20.139,18.008,19.691,18.74Zm-4.18-9.6a3.373,3.373,0,0,0-.559.046.572.572,0,0,1-.188-1.128A4.657,4.657,0,0,1,15.511,8,4.494,4.494,0,0,1,20,12.489a4.548,4.548,0,0,1-.062.748.572.572,0,0,1-.563.477.515.515,0,0,1-.095-.008.572.572,0,0,1-.469-.658,3.352,3.352,0,0,0-3.3-3.905ZM18,12.857a.571.571,0,1,1-1.142,0,1.716,1.716,0,0,0-1.714-1.714.571.571,0,0,1,0-1.142A2.859,2.859,0,0,1,18,12.857Zm3.846.7a.57.57,0,0,1-.557.445.61.61,0,0,1-.127-.014.571.571,0,0,1-.431-.683A5.043,5.043,0,0,0,14.7,7.268a.571.571,0,0,1-.252-1.114,6.183,6.183,0,0,1,7.4,7.4Z" transform="translate(-4 -3)" fill="#fff"/>
</svg>
