<svg xmlns="http://www.w3.org/2000/svg" width="34.004" height="31.035" viewBox="0 0 34.004 31.035">
  <path id="Контур_9" data-name="Контур 9" d="M8.77-9.834A5.07,5.07,0,0,0,10-6.189a4.1,4.1,0,0,0,3.274,1.306,4.254,4.254,0,0,0,3.313-1.306,5.218,5.218,0,0,0,1.189-3.645,5.189,5.189,0,0,0-1.189-3.626,4.259,4.259,0,0,0-3.313-1.325A4.1,4.1,0,0,0,10-13.46,5.043,5.043,0,0,0,8.77-9.834ZM2.6-30.273H9.238v10.323q0,1.525-.039,2.092-.078,1-.156,1.427a7.636,7.636,0,0,1,2.787-3,7.979,7.979,0,0,1,4.084-.921,8.043,8.043,0,0,1,6.409,2.871,11.482,11.482,0,0,1,2.443,7.637,11.464,11.464,0,0,1-2.443,7.715A8.278,8.278,0,0,1,15.679.762a6.85,6.85,0,0,1-3.693-1A9.114,9.114,0,0,1,9-3.2V0H2.6ZM28.73-3.193a3.774,3.774,0,0,1,1.113-2.786,3.8,3.8,0,0,1,2.793-1.13,3.871,3.871,0,0,1,2.852,1.13A3.774,3.774,0,0,1,36.6-3.193,3.8,3.8,0,0,1,35.488-.388,3.962,3.962,0,0,1,32.637.762a3.893,3.893,0,0,1-2.793-1.15A3.8,3.8,0,0,1,28.73-3.193Z" transform="translate(-2.598 30.273)" fill="#7e7e7e"/>
</svg>
