<svg xmlns="http://www.w3.org/2000/svg" width="60" height="60" viewBox="0 0 60 60">
  <path id="icons8-телеграмма-app" d="M33,3A30,30,0,1,0,63,33,30.034,30.034,0,0,0,33,3Zm0,2.069A27.931,27.931,0,1,1,5.069,33,27.962,27.962,0,0,1,33,5.069Zm0,4.138A23.82,23.82,0,0,0,9.207,33a1.034,1.034,0,0,0,2.069,0A21.724,21.724,0,1,1,33,54.724a1.034,1.034,0,1,0,0,2.069A23.793,23.793,0,0,0,33,9.207Zm9.69,11.406a2.771,2.771,0,0,0-1.275.2c-.761.3-21.455,9.025-22.268,9.371a2.125,2.125,0,0,0-1.653,2.124,2.449,2.449,0,0,0,1.631,1.81l5.043,1.7c.423,1.387,1.583,5.186,1.853,6.035.134.427.476,1.5,1.263,1.744a1.687,1.687,0,0,0,1.6-.3l2.946-2.685,4.9,3.756.216.127a2.954,2.954,0,0,0,1.186.265,2.342,2.342,0,0,0,.889-.172,2.634,2.634,0,0,0,1.358-1.368l3.9-19.882a2.166,2.166,0,0,0-.544-2.3A1.865,1.865,0,0,0,42.69,20.612Zm-.4,2.083a2.117,2.117,0,0,1-.038.216L38.433,42.49a.517.517,0,0,1-.194.182.569.569,0,0,1-.364-.034l-6.16-4.726-3.7,3.376.78-4.962s9.575-8.926,9.987-9.31.275-.467.275-.467c.028-.467-.622-.133-.622-.133l-12.6,7.8-.006-.022-6.021-2.027-.03-.012c.033-.014.067-.028.1-.04,7.443-3.139,21.67-9.135,22.288-9.379A1.083,1.083,0,0,1,42.292,22.7ZM12.314,38.209a1.022,1.022,0,0,0-.41.038l-1.982.594a1.035,1.035,0,1,0,.594,1.982l1.982-.594a1.035,1.035,0,0,0-.184-2.02ZM14.2,43.1a1.022,1.022,0,0,0-.386.137L12.04,44.3a1.034,1.034,0,0,0,.531,1.921,1.015,1.015,0,0,0,.529-.145l1.776-1.063A1.035,1.035,0,0,0,14.2,43.1Zm3.421,4.211a1.027,1.027,0,0,0-.731.3l-1.465,1.463a1.034,1.034,0,0,0,1.461,1.465l1.465-1.463a1.035,1.035,0,0,0-.729-1.766Zm4.354,3.3a1.033,1.033,0,0,0-1.033.491l-1.065,1.774a1.035,1.035,0,1,0,1.774,1.065l1.065-1.772a1.034,1.034,0,0,0-.741-1.558ZM26.6,52.756a1.032,1.032,0,0,0-.879.729l-.6,1.98a1.034,1.034,0,1,0,1.98.6l.6-1.982a1.035,1.035,0,0,0-1.1-1.327Z" transform="translate(-3 -3)" fill="#fff"/>
</svg>
